<svg width="48" height="49" viewBox="0 0 48 49" xmlns="http://www.w3.org/2000/svg">
<g clip-path="url(#clip0_4954_1426)">
<path d="M46 26.9C46 32.6287 43.6821 38.1227 39.5563 42.1735C35.4305 46.2243 29.8348 48.5 24 48.5C18.1652 48.5 12.5695 46.2243 8.44365 42.1735C4.31785 38.1227 2 32.6287 2 26.9L2.07333 6.332C8.55111 2.612 16.08 0.5 24.1222 0.5C32.0667 0.5 39.5467 2.588 46 6.212V26.9ZM26.4444 43.532C34.7311 42.356 41.1111 35.3 41.1111 26.9V9.116C35.9778 6.668 30.2089 5.3 24.1222 5.3C17.8889 5.3 11.9733 6.74 6.74222 9.284L6.88889 26.9C6.88889 35.3 13.3178 42.356 21.5556 43.532V38.9H26.4444V43.532ZM21.5556 34.1H14.2222L9.33333 26.9L16.6667 29.3H19.1111L21.5556 26.9H26.4444L28.8889 29.3H31.3333L38.6667 26.9L33.7778 34.1H26.4444L24 31.7L21.5556 34.1ZM9.33333 17.372C10.8978 15.86 13 15.02 15.4444 15.02C17.7667 15.02 19.9422 15.86 21.5556 17.372C19.9422 18.86 17.7667 19.7 15.4444 19.7C13 19.7 10.8978 18.86 9.33333 17.372ZM26.4444 17.372C28.0089 15.86 30.1111 15.02 32.5556 15.02C34.8778 15.02 37.0533 15.86 38.6667 17.372C37.0533 18.86 34.8778 19.7 32.5556 19.7C30.1111 19.7 28.0089 18.86 26.4444 17.372Z"/>
</g>
<defs>
<clipPath id="clip0_4954_1426">
<rect width="48" height="48" transform="translate(0 0.5)"/>
</clipPath>
</defs>
</svg>
