<svg width="28" height="28" viewBox="0 0 28 28" fill="none" xmlns="http://www.w3.org/2000/svg">
<g clip-path="url(#clip0_981_4951)">
<path d="M15.0967 14L21.5444 7.55218C21.6719 7.40339 21.7384 7.21199 21.7309 7.01625C21.7233 6.8205 21.6422 6.63481 21.5037 6.49629C21.3651 6.35778 21.1795 6.27663 20.9837 6.26907C20.788 6.26151 20.5966 6.32809 20.4478 6.45551L14 12.9033L7.55221 6.44773C7.40576 6.30127 7.20712 6.21899 6.99999 6.21899C6.79287 6.21899 6.59423 6.30127 6.44777 6.44773C6.30131 6.59419 6.21903 6.79283 6.21903 6.99995C6.21903 7.20708 6.30131 7.40572 6.44777 7.55218L12.9033 14L6.44777 20.4477C6.36635 20.5175 6.30022 20.6033 6.25354 20.6998C6.20685 20.7962 6.18062 20.9014 6.17648 21.0085C6.17235 21.1156 6.19039 21.2224 6.2295 21.3222C6.2686 21.422 6.32791 21.5127 6.40371 21.5885C6.47951 21.6643 6.57016 21.7236 6.66996 21.7627C6.76977 21.8018 6.87659 21.8198 6.9837 21.8157C7.09082 21.8115 7.19592 21.7853 7.29241 21.7386C7.38891 21.6919 7.47471 21.6258 7.54444 21.5444L14 15.0966L20.4478 21.5444C20.5966 21.6718 20.788 21.7384 20.9837 21.7308C21.1795 21.7233 21.3651 21.6421 21.5037 21.5036C21.6422 21.3651 21.7233 21.1794 21.7309 20.9837C21.7384 20.7879 21.6719 20.5965 21.5444 20.4477L15.0967 14Z" fill="#ECF1F0"/>
</g>
<defs>
<clipPath id="clip0_981_4951">
<rect width="28" height="28" fill="white"/>
</clipPath>
</defs>
</svg>
